<?xml version="1.0" encoding="UTF-8" standalone="no"?>
<svg
   xmlns:dc="http://purl.org/dc/elements/1.1/"
   xmlns:cc="http://creativecommons.org/ns#"
   xmlns:rdf="http://www.w3.org/1999/02/22-rdf-syntax-ns#"
   xmlns:svg="http://www.w3.org/2000/svg"
   xmlns="http://www.w3.org/2000/svg"
   xmlns:sodipodi="http://sodipodi.sourceforge.net/DTD/sodipodi-0.dtd"
   xmlns:inkscape="http://www.inkscape.org/namespaces/inkscape"
   version="1.1"
   id="svg2"
   viewBox="0 0 686.5205 114.78322"
   height="32.394394mm"
   width="193.75134mm"
   inkscape:version="0.91 r13725"
   sodipodi:docname="gregorovius_signature.svg">
  <sodipodi:namedview
     pagecolor="#686868"
     bordercolor="#666666"
     borderopacity="1"
     objecttolerance="10"
     gridtolerance="10"
     guidetolerance="10"
     inkscape:pageopacity="0"
     inkscape:pageshadow="2"
     inkscape:window-width="1680"
     inkscape:window-height="1021"
     id="namedview4156"
     showgrid="false"
     inkscape:zoom="0.87688568"
     inkscape:cx="105.45153"
     inkscape:cy="-65.797632"
     inkscape:window-x="0"
     inkscape:window-y="0"
     inkscape:window-maximized="1"
     inkscape:current-layer="svg2"
     borderlayer="true" />
  <defs
     id="defs4" />
  <metadata
     id="metadata7">
    <rdf:RDF>
      <cc:Work
         rdf:about="">
        <dc:format>image/svg+xml</dc:format>
        <dc:type
           rdf:resource="http://purl.org/dc/dcmitype/StillImage" />
        <dc:title></dc:title>
      </cc:Work>
    </rdf:RDF>
  </metadata>
  <g
     transform="translate(-38.251867,-379.30773)"
     id="layer1"
     style="fill:#ffffff;fill-opacity:1">
    <path
       id="path3427"
       d="m 463.78472,493.17622 c -0.44916,-1.17047 3.30123,-5.62579 13.06897,-15.52542 7.06069,-7.15602 7.85629,-7.75872 16.53729,-12.52746 5.01588,-2.75534 9.51384,-5.00974 9.99548,-5.00974 0.48548,0 1.07212,-0.89521 1.31649,-2.00891 0.49506,-2.25632 5.90187,-7.71877 12.81695,-12.94884 4.61243,-3.48853 4.58315,-4.17584 -0.17884,-4.19855 -1.52987,-0.008 -3.53543,-0.40656 -4.45679,-0.88724 -1.56072,-0.8142 -2.09498,-0.68921 -7.81493,1.82814 -7.13495,3.14009 -14.7751,5.23472 -19.09352,5.23472 -3.44019,0 -5.30916,-1.42718 -6.07113,-4.63596 -0.64461,-2.71455 -0.81706,-2.85536 -2.31059,-1.88678 -1.75473,1.138 -12.478,2.99178 -14.23083,2.46017 -1.84801,-0.56047 -5.20854,-3.1486 -5.99406,-4.61636 -0.67092,-1.25363 0.0863,-3.51857 1.47887,-4.42269 0.36422,-0.23649 0.50146,-0.59072 0.305,-0.7872 -0.73818,-0.73819 -2.13948,0.39477 -3.86847,3.12772 -3.5946,5.68184 -10.96314,11.8777 -17.54803,14.75536 -1.99546,0.87205 -2.82264,0.98189 -3.3585,0.44606 -0.39101,-0.39103 -0.59041,-0.8025 -0.44307,-0.9144 0.14732,-0.11188 2.19227,-1.55482 4.54437,-3.2065 8.93331,-6.27315 15.79152,-13.71959 15.80759,-17.16341 0.004,-0.89415 -0.56039,-1.08172 -3.25564,-1.08172 -3.5288,0 -15.78601,2.79682 -22.91058,5.22767 -10.08134,3.43969 -10.34332,3.56678 -12.01381,5.8281 -0.90766,1.22869 -3.18779,4.06808 -5.06694,6.30979 -1.87915,2.2417 -4.80745,5.82833 -6.5073,7.97029 -7.09347,8.93839 -15.227,16.26391 -21.68648,19.53212 -6.94053,3.51158 -8.96568,0.65229 -4.53945,-6.40923 6.97275,-11.12414 14.4195,-17.58291 31.63455,-27.43759 1.95483,-1.11901 3.55424,-2.23204 3.55424,-2.47337 0,-0.24134 1.70213,-2.55464 3.78251,-5.14071 2.08037,-2.58604 3.65322,-4.83118 3.49522,-4.98917 -0.15803,-0.15804 -1.58337,0.28604 -3.16749,0.98678 -1.76064,0.77882 -4.88457,1.41551 -8.03653,1.63795 -4.91741,0.34702 -5.20361,0.29629 -6.17813,-1.09503 -1.22881,-1.75437 -1.36493,-7.05764 -0.24672,-9.61216 1.68525,-3.84987 13.27743,-15.52717 17.25643,-17.38309 1.5881,-0.74077 3.06171,-1.62881 3.27472,-1.97344 0.21301,-0.34465 3.7814,-2.62787 7.92977,-5.07386 4.14841,-2.44598 9.06125,-5.42531 10.91747,-6.62073 5.53766,-3.56631 14.83708,-7.49194 17.7557,-7.49531 3.53806,-0.004 5.75792,0.92803 5.75792,2.41774 0,1.51705 -0.98925,2.20517 -1.44874,1.00773 -0.18812,-0.49021 -1.16515,-1.31698 -2.17122,-1.83722 -1.75478,-0.90745 -2.04891,-0.8444 -7.23251,1.55043 -9.64945,4.45806 -25.23198,14.22663 -31.57804,19.796 -2.08863,1.83302 -5.66349,4.85317 -7.94411,6.71147 -2.28063,1.8583 -3.84587,3.47895 -3.47833,3.60146 0.78516,0.26172 10.55865,-2.85204 17.30039,-5.51178 11.32103,-4.46637 25.77629,-13.21236 31.58069,-19.1076 4.43538,-4.50477 5.21181,-3.35701 0.86946,1.2853 -1.57639,1.68528 -2.70126,3.06416 -2.49971,3.06416 0.20151,0 1.80584,-0.84871 3.56511,-1.88601 3.60629,-2.12634 6.39771,-2.88602 7.00343,-1.90596 0.46717,0.75589 -1.70386,2.35616 -11.43392,8.42793 -3.81364,2.37979 -9.21709,6.41308 -12.00769,8.96285 -2.7906,2.54979 -6.27544,5.67605 -7.74409,6.94725 -1.46865,1.27122 -2.49275,2.48883 -2.27574,2.70581 0.55036,0.55036 15.85424,-9.51008 25.33636,-16.65556 4.34214,-3.27214 8.42383,-6.23246 9.07041,-6.5785 1.48544,-0.79498 3.45037,-4.43118 2.1183,-3.92001 -0.9025,0.34632 -2.70315,-0.80458 -2.70315,-1.72775 0,-0.66189 7.0333,-4.2601 8.32711,-4.2601 0.51966,0 0.94481,0.36279 0.94481,0.80619 0,1.44646 -3.44747,6.24019 -6.54783,9.10478 -7.48063,6.91178 -26.12831,19.62686 -40.73896,27.77823 -5.07615,2.83202 -6.27614,3.81985 -6.96948,5.73722 -0.40629,1.12359 -1.85547,3.10113 -3.22042,4.39454 -1.36495,1.29341 -2.48173,2.57337 -2.48173,2.84434 0,0.27098 3.68559,-0.69274 8.1902,-2.14161 14.10438,-4.53653 15.89298,-4.94566 21.62045,-4.94566 4.95844,0 5.522,0.12754 6.971,1.57643 l 1.57645,1.57645 5.29452,-2.65818 c 2.91198,-1.46197 5.68587,-2.65815 6.16419,-2.65815 1.56531,0 0.91477,1.19228 -1.47296,2.69959 -2.33654,1.47502 -8.78366,8.09008 -8.78366,9.01251 0,1.05018 5.00542,3.74064 6.94069,3.73071 1.11221,-0.006 4.52355,-0.52166 7.58079,-1.14656 5.34207,-1.09193 5.58036,-1.21201 6.11666,-3.08197 0.30693,-1.07018 2.39515,-3.83462 4.64049,-6.14318 3.29933,-3.39221 4.91247,-4.52332 8.40935,-5.89641 2.37979,-0.93446 5.16137,-1.7569 6.18128,-1.82764 1.56615,-0.10858 1.88282,0.11518 2.03727,1.43938 0.33972,2.91309 -2.89989,6.30354 -9.24147,9.6718 -6.57398,3.49167 -7.93994,4.07108 -7.93994,3.36798 0,-0.27365 2.52666,-1.99316 5.61481,-3.82113 6.8988,-4.0836 11.24844,-8.62321 8.26239,-8.62321 -1.57874,0 -4.67519,1.81888 -8.98993,5.28073 -3.04747,2.44508 -4.48983,4.14486 -5.71768,6.73811 -1.56518,3.30573 -2.28827,6.02864 -1.10562,4.16344 0.39469,-0.62247 0.98154,-0.35223 2.47224,1.13847 1.85397,1.85397 2.12145,1.93212 5.19067,1.51664 3.82524,-0.51785 12.28883,-2.89733 17.11439,-4.81159 2.98148,-1.18275 3.61844,-1.74644 4.87881,-4.31775 2.15749,-4.40158 11.50797,-10.94431 15.64096,-10.94431 2.16988,0 2.20855,0.69155 0.28218,5.04739 -1.77059,4.00364 -2.1916,4.38146 -8.21416,7.37142 l -4.69063,2.32874 2.2825,0.4282 c 5.30301,0.99485 8.68718,0.66619 11.22502,-1.09013 2.61915,-1.8126 6.44203,-2.52084 6.88317,-1.27518 0.29952,0.84578 -5.07492,4.49715 -6.61937,4.49715 -1.71875,0 -9.44498,5.35696 -13.0949,9.07931 -1.93014,1.96845 -3.405,3.68338 -3.27741,3.81094 0.12754,0.12754 1.42861,-0.33892 2.89125,-1.03664 9.05053,-4.31744 19.24803,-8.69463 22.43938,-9.63196 6.17362,-1.8132 8.40155,-2.80601 11.05854,-4.92786 1.39715,-1.11576 3.98264,-2.63226 5.74551,-3.36999 3.81274,-1.59557 8.84826,-1.83127 8.84826,-0.41414 0,0.68041 0.70743,0.92718 2.65795,0.92718 3.14765,0 4.14521,0.81352 4.13093,3.3688 -0.0253,4.52462 -4.70052,9.42223 -10.09442,10.5746 -1.07169,0.22896 -2.22671,0.61918 -2.56667,0.86713 -1.04748,0.76399 -6.03524,1.77016 -8.96286,1.80805 -3.52335,0.0455 -4.94502,-0.39268 -4.94502,-1.52449 0,-0.49166 -0.3477,-1.4828 -0.77266,-2.20255 -0.61813,-1.0469 -0.61813,-1.36458 0,-1.58845 0.90859,-0.32903 1.05555,-3.26742 0.16339,-3.26742 -0.33509,0 -2.44437,0.97355 -4.68729,2.16345 -2.24293,1.18989 -4.61918,2.16344 -5.2806,2.16344 -0.6614,0 -2.79402,0.79819 -4.73915,1.77378 -1.94515,0.97557 -4.23201,1.976 -5.08194,2.22316 -0.84992,0.24717 -4.87008,2.11006 -8.93368,4.13979 -6.85054,3.42177 -7.51516,3.91238 -9.12989,6.7397 -0.95783,1.6771 -2.01405,3.04928 -2.34715,3.04928 -0.33309,0 -0.60563,0.29607 -0.60563,0.65794 0,1.22169 -5.24454,6.75898 -6.40193,6.75929 -0.71697,2.1e-4 -1.02607,0.31768 -0.82345,0.84574 0.56101,1.46196 -5.55664,8.19756 -8.38235,9.22907 -0.59494,0.21718 -1.08172,0.68177 -1.08172,1.03241 0,0.35063 -0.26421,0.63752 -0.58714,0.63752 -0.32293,0 -1.82358,0.83447 -3.3348,1.85439 -1.51122,1.01991 -3.09392,1.85438 -3.51709,1.85438 -0.42317,0 -1.07822,0.39125 -1.45567,0.86944 -0.37745,0.47818 -2.32484,1.72987 -4.32753,2.78157 -3.94782,2.07314 -7.60368,2.5095 -8.19147,0.97772 z m 10.13408,-3.75278 c 1.56532,-0.83229 4.74749,-3.0388 7.07151,-4.90338 2.324,-1.86454 4.56924,-3.39091 4.98945,-3.39188 0.4202,-10e-4 1.32029,-0.83466 2.00024,-1.85261 0.67994,-1.01795 1.44487,-1.85162 1.69985,-1.85261 0.25497,-10e-4 0.46359,-0.39437 0.46359,-0.8742 0,-0.47983 1.76523,-2.49647 3.92271,-4.48143 2.15749,-1.98495 4.25346,-4.23485 4.65771,-4.99979 0.40426,-0.76493 1.14245,-1.39079 1.64045,-1.39079 0.49799,0 0.90544,-0.55631 0.90544,-1.23625 0,-0.67994 -0.26837,-1.23626 -0.59639,-1.23626 -0.68403,0 -10.38257,5.81212 -15.4559,9.26238 -3.40896,2.31836 -18.08103,17.34805 -18.44608,18.89568 -0.25633,1.08677 3.24153,0.13784 7.14742,-1.93886 z m -93.49305,-16.32915 c 0.21011,-0.33997 0.82238,-0.61813 1.36063,-0.61813 1.46655,0 7.1144,-5.0699 11.47062,-10.29681 3.79285,-4.55093 14.13195,-16.39731 15.75876,-18.05614 3.42437,-3.4917 -7.76604,2.93978 -14.99119,8.61594 -7.29568,5.73157 -16.38039,17.00707 -16.38039,20.33052 0,0.82209 2.27623,0.84224 2.78157,0.0245 z M 552.2344,448.95565 c 0.32297,-0.32256 1.23677,-0.58648 2.03067,-0.58648 0.79388,0 2.1528,-0.46479 3.01976,-1.03285 1.29115,-0.84599 1.66907,-0.88279 2.08895,-0.20336 0.41981,0.67924 0.79868,0.642 2.09236,-0.20564 2.28351,-1.49619 6.70054,-7.57548 6.45282,-8.88119 -0.30484,-1.60676 -3.08347,-1.71795 -5.53791,-0.22158 -1.14403,0.69749 -2.42778,1.26918 -2.85274,1.27046 -1.41065,0.004 -0.79879,-1.87274 0.80985,-2.48434 0.87038,-0.33093 1.41382,-0.87465 1.20761,-1.2083 -0.21463,-0.34728 -0.82514,-0.39059 -1.42798,-0.10137 -0.57918,0.27791 -2.62941,1.2678 -4.55605,2.19973 -4.64385,2.24626 -11.02304,8.01164 -11.02304,9.96239 0,0.80452 0.48678,1.75987 1.08173,2.123 1.19035,0.72657 5.68416,0.29819 6.61397,-0.63047 z m -32.7491,-14.58246 c 5.2176,-3.21991 5.44381,-3.44118 6.38773,-6.24771 0.78148,-2.32352 0.0229,-2.62896 -2.84496,-1.14551 -3.47439,1.7972 -10.4737,10.2629 -8.48522,10.2629 0.16092,0 2.38492,-1.29135 4.94245,-2.86968 z m -98.78097,-8.97926 c 3.59466,-1.88368 6.62668,-4.15145 10.2308,-7.65195 2.81718,-2.7362 7.20222,-6.76949 9.74454,-8.96285 5.42461,-4.68008 9.23244,-8.26217 8.35827,-7.86281 -0.33998,0.15535 -3.14149,1.72249 -6.22561,3.48261 -3.0841,1.76014 -8.3691,4.17898 -11.74443,5.37522 -10.72167,3.7998 -18.93329,6.45237 -19.97478,6.45237 -1.14051,0 -2.09757,1.29745 -4.54798,6.16554 -1.73766,3.45214 -2.06496,4.9976 -1.23976,5.85389 0.25498,0.26458 2.6746,0.33346 5.37693,0.15309 4.25307,-0.2839 5.59983,-0.68772 10.02202,-3.00506 z M 42.618821,489.73745 c 0,-1.20828 5.302797,-8.88736 8.944789,-12.95314 1.970241,-2.19951 5.61227,-6.64158 8.093396,-9.8713 6.083656,-7.91916 21.888279,-25.50516 23.598288,-26.25808 0.756672,-0.33317 1.819296,-1.71425 2.361374,-3.06906 0.5421,-1.35481 1.937482,-3.5169 3.100881,-4.80465 1.163399,-1.28773 2.115255,-2.59566 2.115255,-2.90654 0,-0.31088 1.264628,-1.04818 2.810256,-1.63847 2.081544,-0.79496 2.990583,-0.89295 3.505609,-0.37793 0.515026,0.51503 0.262087,1.03613 -0.975424,2.00956 -2.116308,1.66468 -5.898487,7.53818 -6.368964,9.89062 -0.567548,2.83775 1.280099,3.06668 3.692611,0.45754 6.745198,-7.29494 17.769738,-18.33079 23.606348,-23.63056 8.38422,-7.61308 8.92309,-8.42454 3.88891,-5.8563 -3.82021,1.94891 -21.948731,9.76885 -25.7747,11.11816 -3.526334,1.24365 -6.919961,1.59632 -5.899059,0.61304 0.322968,-0.31108 4.481423,-2.22376 9.241009,-4.2504 23.19793,-9.87768 28.15536,-12.36814 32.72269,-16.43901 5.41272,-4.82434 18.76251,-15.50662 22.90883,-18.33124 2.44344,-1.66458 4.12617,-2.25297 8.03566,-2.80982 2.71976,-0.3874 5.4318,-0.91112 6.02675,-1.16383 0.61627,-0.26176 1.08172,-0.19286 1.08172,0.16009 0,0.34071 -1.44767,1.37645 -3.21706,2.30164 -4.83234,2.52676 -7.77342,4.48213 -10.60681,7.0519 -4.80887,4.36144 -17.26672,13.43556 -20.17316,14.69382 -0.50996,0.22078 -3.15246,2.37061 -5.87222,4.77741 -4.86566,4.30576 -6.21513,5.52137 -14.83507,13.36337 -2.37979,2.16504 -8.41938,8.05242 -13.42129,13.08307 -8.837827,8.88864 -9.055799,9.17051 -7.726598,9.99163 0.890784,0.55031 3.567687,0.87721 7.675998,0.93735 l 6.30822,0.0923 2.49429,-3.37642 c 1.63651,-2.21524 4.52604,-4.79294 8.40217,-7.49542 5.85625,-4.083 15.32284,-8.60374 16.81638,-8.03061 0.97689,0.37487 0.96725,2.70577 -0.0185,4.43696 -1.81553,3.18903 -12.61212,10.93036 -19.71999,14.13952 -3.52535,1.5917 -4.13676,2.10771 -4.38834,3.70373 -0.48025,3.04655 0.37516,3.94875 3.41388,3.60066 2.76031,-0.31619 4.52499,-1.10762 17.16213,-7.69693 4.24964,-2.21584 9.94882,-4.94329 12.66485,-6.06097 3.36676,-1.38545 5.54387,-2.73274 6.84136,-4.2337 1.85302,-2.14367 3.36453,-2.33335 3.36453,-0.42227 0,1.80642 -5.62661,9.19509 -8.79289,11.54649 -7.54366,5.60222 -6.50827,6.56009 4.15693,3.8457 6.44444,-1.64018 10.96058,-3.83278 12.86005,-6.24363 1.14494,-1.45315 5.52804,-3.68053 7.92928,-4.02946 2.33049,-0.33864 1.95805,1.21663 -0.69193,2.88949 -1.39979,0.88366 -3.29555,2.88283 -4.21279,4.44261 -0.91722,1.55979 -2.15259,3.30458 -2.74525,3.87731 -0.88378,0.85409 -0.93937,1.22748 -0.30906,2.07632 0.69557,0.93671 1.33231,0.69811 6.70998,-2.51461 4.27551,-2.55425 7.14113,-4.84942 10.21986,-8.18548 5.49648,-5.95583 6.8312,-8.00077 5.69288,-8.72207 -0.46084,-0.292 -1.02509,-0.53518 -1.25392,-0.54039 -0.22883,-0.006 -1.27192,-0.86532 -2.31798,-1.91139 -1.66797,-1.66802 -1.90189,-2.32489 -1.90189,-5.34092 0,-3.9574 1.83969,-8.27166 4.18155,-9.80611 1.82286,-1.19438 2.56506,-0.67161 1.19533,0.84194 -2.79043,3.08339 -3.65764,8.61678 -1.89093,12.06536 1.82311,3.55867 2.95034,3.73471 4.2345,0.66129 1.53321,-3.66947 1.27458,-13.82721 -0.35204,-13.82721 -0.31296,0 -0.56901,-0.27816 -0.56901,-0.61813 0,-0.33997 0.70228,-0.61813 1.56061,-0.61813 1.92978,0 2.46165,1.26076 3.06109,7.25594 0.38833,3.88389 0.26143,4.92296 -0.96151,7.87355 -0.77489,1.86957 -1.24491,3.56316 -1.0445,3.76358 0.20048,0.20048 3.35281,1.03983 7.00531,1.86536 6.62573,1.49756 8.30471,2.22845 8.30471,3.61531 0,0.79386 -8.22648,8.41861 -11.73773,10.87915 -1.55303,1.08832 -1.87734,1.56519 -1.15854,1.7036 1.09232,0.21038 7.86927,-3.31199 12.29135,-6.38849 3.62411,-2.52132 9.92763,-5.83818 11.1131,-5.84759 0.50995,-0.004 2.41513,-0.70004 4.23374,-1.54665 1.8186,-0.8466 3.69616,-1.53928 4.17237,-1.53928 1.80042,0 0.75673,1.95403 -2.0703,3.87604 -6.06114,4.12079 -10.04211,9.10465 -7.27254,9.10465 0.5047,0 5.43361,-2.2948 10.95316,-5.09955 5.51954,-2.80476 10.2525,-5.19228 10.51772,-5.3056 1.23316,-0.52694 0.29612,1.80798 -1.19686,2.98238 -1.54007,1.21141 -6.35005,7.82803 -6.35465,8.74147 -0.001,0.21533 0.6001,0.54894 1.33594,0.74136 1.1489,0.30045 1.22186,0.48972 0.51651,1.3396 -2.24852,2.70932 -6.37931,-0.93213 -4.85428,-4.27921 0.4005,-0.879 0.53346,-1.79288 0.29548,-2.03086 -0.23798,-0.238 -2.79066,0.73674 -5.67264,2.16604 -5.22792,2.59278 -9.56347,3.42311 -9.53483,1.8261 0.008,-0.42497 0.82516,-2.43537 1.81674,-4.46757 0.9916,-2.0322 1.70661,-3.79118 1.58892,-3.90887 -0.34761,-0.3476 -4.13118,1.73478 -7.17729,3.95019 -3.64288,2.64941 -14.8968,8.28954 -16.54038,8.28954 -3.46133,0 -1.6169,-3.59121 5.3045,-10.32813 4.77892,-4.65156 5.09264,-5.10189 3.76751,-5.40819 -0.79501,-0.18379 -3.19969,-0.73056 -5.34375,-1.21509 -2.14404,-0.48453 -4.25495,-1.177 -4.69089,-1.53879 -0.6033,-0.50068 -1.26099,0.0649 -2.75319,2.36782 -1.07832,1.66411 -4.13286,5.0684 -6.78791,7.5651 -3.84753,3.61807 -6.3047,5.274 -12.10585,8.15839 -7.88301,3.91948 -9.11802,3.97506 -7.85554,0.35348 0.38219,-1.09639 0.69492,-2.67977 0.69492,-3.51859 0,-1.74364 -0.34332,-1.71848 -6.41831,0.47003 -5.32904,1.91978 -12.98318,2.94144 -14.23755,1.90039 -1.94018,-1.61018 -1.12559,-3.49677 3.46437,-8.02347 2.44362,-2.40997 4.04302,-4.37028 3.55423,-4.35623 -1.05741,0.0303 -11.34904,5.1345 -20.20236,10.01936 -6.95019,3.8348 -9.64038,4.78153 -13.6017,4.78674 -3.01607,0.004 -4.93307,-1.48207 -5.48741,-4.25375 -0.3486,-1.74302 -0.35999,-1.74675 -6.59334,-2.15525 -4.464435,-0.29258 -6.814619,-0.74579 -8.245647,-1.59011 l -2.001473,-1.18091 -1.706796,2.27376 c -1.819361,2.4237 -20.87884,21.1735 -25.623361,25.20699 -1.559149,1.32549 -5.566204,4.63525 -8.904568,7.35502 -6.981446,5.68779 -7.479306,6.14875 -8.772493,8.12239 -0.975835,1.48934 -2.667904,1.993 -2.667904,0.79417 z M 60.544535,471.2399 c 0,-0.33996 -0.1226,-0.61812 -0.272578,-0.61812 -0.15,0 -0.444494,0.27816 -0.654615,0.61812 -0.210121,0.33998 -0.08736,0.61814 0.272573,0.61814 0.36004,0 0.65462,-0.27816 0.65462,-0.61814 z m 8.239644,-7.84647 c 6.282961,-5.2716 19.576114,-18.07398 19.576114,-18.85336 0,-0.27378 -0.521556,-1.01933 -1.15899,-1.65678 -0.637455,-0.63744 -1.298092,-1.54147 -1.468079,-2.00892 -0.310586,-0.854 -1.627217,0.46053 -7.077769,7.06644 -1.291765,1.56557 -5.288581,6.40525 -8.881796,10.75483 -9.455235,11.44546 -9.546144,11.87712 -0.98948,4.69779 z m 56.476161,-26.47644 c 2.313,-2.12562 4.03622,-4.04146 3.82935,-4.25746 -0.46939,-0.49015 -5.17144,1.98219 -6.95206,3.65539 -0.72911,0.68511 -2.9404,2.33124 -4.914,3.6581 -3.28053,2.2055 -5.37448,4.30431 -5.37448,5.38698 0,1.0863 9.65801,-4.9939 13.41119,-8.44301 z m 552.94959,38.2137 c -0.84264,-0.16236 -1.54112,-0.87061 -1.77409,-1.79897 -0.52894,-2.10741 0.31845,-2.69673 1.45241,-1.01009 1.05669,1.57178 3.01201,1.79548 4.81905,0.55129 0.67061,-0.4617 2.33189,-1.02714 3.69177,-1.25653 5.26978,-0.88887 8.73693,-1.95352 10.74893,-3.30062 1.15238,-0.77151 2.36929,-1.40276 2.70432,-1.40276 1.57708,0 7.69253,-3.33197 8.74694,-4.76569 1.17716,-1.60072 1.17587,-1.61615 -0.22302,-2.74893 -0.77378,-0.62653 -2.05831,-1.13917 -2.85458,-1.13917 -3.05034,0 -7.0691,-2.49602 -7.0691,-4.39054 0,-0.92711 -0.2779,-1.02053 -1.69985,-0.57148 -0.93492,0.29526 -3.89489,0.71317 -6.57768,0.92873 l -4.87784,0.3919 0.32526,-4.05152 c 0.17885,-2.22833 0.21635,-4.05152 0.0832,-4.05152 -0.1331,0 -3.2906,1.56318 -7.01674,3.47373 -3.77923,1.93779 -7.19383,3.31292 -7.72251,3.11005 -1.32905,-0.51002 -1.17977,-3.0315 0.29014,-4.90019 1.24312,-1.58034 1.11399,-3.53798 -0.2334,-3.53798 -0.39462,0 -1.68613,0.63478 -2.86997,1.41063 -1.18378,0.77586 -3.68225,2.08693 -5.55209,2.91351 -1.86984,0.82656 -5.41721,2.55612 -7.88305,3.84346 -8.64933,4.51555 -9.33237,3.14489 -4.00806,-8.04313 1.18081,-2.48133 2.02264,-4.63585 1.87064,-4.78785 -0.15206,-0.15206 -1.78423,-0.41851 -3.62724,-0.59225 -1.84295,-0.17369 -4.25482,-0.48403 -5.35972,-0.68956 -1.37398,-0.25558 -2.00892,-0.13496 -2.00892,0.38138 0,0.41529 -1.21122,1.94912 -2.69157,3.40855 -1.97634,1.94836 -3.65994,2.92761 -6.33582,3.68513 -2.00434,0.5674 -4.42944,1.27326 -5.38915,1.56858 -2.22309,0.68411 -3.16747,0.30665 -4.0436,-1.61622 -1.16975,-2.56743 -0.80814,-4.11654 1.74806,-7.48812 1.34455,-1.77337 2.24733,-3.34127 2.00626,-3.48422 -0.24107,-0.143 -2.69226,-0.45583 -5.44707,-0.6953 l -5.00881,-0.43536 -1.92071,3.40333 c -2.98024,5.28069 -7.87742,9.94347 -11.3607,10.81695 -3.8204,0.95799 -5.56912,0.91767 -7.02568,-0.16195 -1.18003,-0.87471 -1.17533,-0.93626 0.28428,-3.7228 0.81626,-1.55839 3.11108,-4.67637 5.09953,-6.92889 1.98852,-2.25252 3.61543,-4.61053 3.61543,-5.24003 0,-0.97947 0.50569,-1.14457 3.50559,-1.14457 2.46708,0 3.85854,-0.31947 4.69715,-1.0784 1.14317,-1.03455 1.24844,-1.00718 2.58737,0.67194 0.81413,1.02104 1.88325,1.6811 2.56578,1.58412 0.6436,-0.0915 2.42183,0.0649 3.95169,0.3473 1.52987,0.28247 5.14592,0.68075 8.03567,0.8851 4.71817,0.33363 5.25409,0.49762 5.25409,1.60778 0,0.93677 -0.47553,1.28234 -1.96287,1.42651 -1.07962,0.10467 -2.29585,0.59142 -2.70276,1.08172 -0.40692,0.4903 -0.93863,0.89146 -1.18168,0.89146 -1.06936,0 -5.65618,5.06188 -5.46876,6.03516 0.2755,1.43048 1.68601,1.60854 5.86665,0.74064 2.85872,-0.59346 4.10419,-1.28733 6.62238,-3.68954 2.77397,-2.64621 3.03253,-3.1122 2.44877,-4.41321 -0.86222,-1.92163 -0.47756,-2.83605 1.65751,-3.94013 2.67291,-1.38222 3.91677,-1.20822 3.40706,0.47659 -0.8744,2.89054 -0.72618,3.10567 2.67817,3.88708 4.02661,0.92423 8.23531,0.70057 11.33188,-0.60224 2.47641,-1.04186 4.81034,-1.27103 4.81034,-0.47235 0,0.85147 -1.43758,1.978 -2.52418,1.978 -2.20969,0 -7.94932,8.09614 -7.17332,10.11841 0.67394,1.75619 3.1132,1.11847 11.929,-3.11872 6.98714,-3.35827 9.08821,-4.68475 11.28436,-7.12434 3.62984,-4.03225 7.39207,-6.19076 10.35562,-5.94138 2.40081,0.20212 3.78047,1.73914 1.56096,1.73914 -3.13174,0 -16.98071,14.94007 -14.67065,15.82651 1.11461,0.42772 12.66452,-5.56431 14.18734,-7.36032 1.72297,-2.03201 6.08201,-4.75176 7.62065,-4.75479 2.08649,-0.004 2.27613,1.08023 0.36575,2.09163 -2.41769,1.27998 -5.02977,4.82776 -6.04975,8.21683 -0.47682,1.58437 -0.76344,3.04809 -0.63692,3.25278 0.12652,0.2046 2.01726,0.35314 4.20179,0.32989 l 3.97178,-0.0422 3.39186,-3.47417 c 3.64874,-3.73724 6.68709,-5.04532 10.90427,-4.69454 1.92936,0.16051 2.30537,0.43342 2.46281,1.78765 0.10219,0.87902 -0.17823,1.90027 -0.62301,2.26945 -0.90229,0.74882 -5.52898,2.54107 -7.90753,3.06316 -1.39196,0.30554 -4.24889,2.95395 -4.30465,3.99053 -0.0123,0.22724 1.72953,0.99615 3.87066,1.70865 5.17212,1.7212 6.61527,2.79697 6.61527,4.9314 0,2.55295 -2.46213,4.78918 -8.20374,7.45102 -5.34136,2.47632 -10.70825,3.97129 -16.71423,4.65583 -2.22935,0.25408 -3.72033,0.74257 -3.92945,1.28737 -0.32544,0.84822 -2.07932,1.00338 -4.99404,0.44184 z m -75.80796,-28.98933 c 7.1447,-4.78353 14.24222,-15.07206 9.35061,-13.55468 -0.76079,0.236 -2.04539,0.58509 -2.8547,0.77573 -2.29993,0.54183 -10.58205,10.21953 -10.58205,12.36519 0,2.46095 0.89326,2.55141 4.08614,0.41376 z m 109.35673,-0.12528 c -0.19039,-0.19038 -0.68909,-3.9e-4 -1.10843,0.42204 -0.60589,0.61048 -0.53493,0.68149 0.34602,0.34603 0.60961,-0.23213 0.95267,-0.57775 0.76241,-0.76807 z m -469.07246,6.88607 c -0.22665,-0.22664 -0.41209,-1.48457 -0.41209,-2.79538 0,-1.92386 0.47963,-2.90366 2.48803,-5.08252 1.36843,-1.48455 3.38508,-3.03142 4.48143,-3.43745 1.09637,-0.40602 2.47638,-0.99321 3.06674,-1.3048 1.61683,-0.85347 1.80775,-0.71781 1.59475,1.13327 -0.16236,1.4108 -0.53252,1.73245 -2.17703,1.8915 -1.47094,0.14216 -2.30982,0.723 -3.25605,2.25402 -0.70104,1.1343 -1.96511,2.51481 -2.80906,3.06777 -2.17666,1.42621 -2.0684,3.10442 0.16545,2.56475 0.93492,-0.22588 2.39525,-0.57378 3.24517,-0.77315 2.30669,-0.54105 3.01173,-1.31484 3.76477,-4.13187 0.84805,-3.17251 1.34493,-3.78249 4.66672,-5.7292 4.94779,-2.8996 4.92733,0.10672 -0.0332,4.86547 -2.93458,2.8152 -3.06894,3.0724 -2.01474,3.85629 1.36371,1.01402 6.66146,1.81993 8.37938,1.27468 0.67984,-0.21577 2.67472,-2.33296 4.43309,-4.70488 1.75837,-2.3719 3.70345,-4.58358 4.32241,-4.91484 1.49838,-0.80191 4.73996,-0.76804 5.24852,0.0548 0.22337,0.36142 -1.32912,2.46419 -3.44998,4.67282 -2.51327,2.6173 -3.64555,4.22629 -3.2515,4.62034 0.86767,0.86765 5.75022,-0.0258 5.75022,-1.05216 0,-0.45865 0.76493,-1.31331 1.69986,-1.89924 0.93491,-0.58592 2.79783,-2.12219 4.1398,-3.41394 1.82098,-1.75282 2.95787,-2.34865 4.48143,-2.34865 2.99916,0 2.60566,1.67914 -1.07398,4.58267 -1.68621,1.33056 -3.06583,2.6392 -3.06583,2.90809 0,0.79023 4.13561,1.33649 6.60752,0.87278 1.9531,-0.36641 2.17334,-0.2986 1.53364,0.47218 -0.97116,1.1702 -5.56396,1.91072 -6.58659,1.06203 -0.42885,-0.35594 -1.20411,-0.4843 -1.72276,-0.28529 -0.51867,0.19904 -1.12664,0.0647 -1.35108,-0.29841 -0.48598,-0.7863 -4.46926,-0.89251 -4.76503,-0.12713 -0.37384,0.96743 -6.62571,1.22396 -7.38984,0.30321 -0.76479,-0.9215 -2.39719,-1.13772 -2.39719,-0.31753 0,1.12934 -3.38793,1.95362 -8.0297,1.95362 -4.35597,0 -4.98745,-0.14959 -5.87183,-1.39079 -0.90436,-1.26929 -1.04391,-1.29842 -1.59745,-0.3334 -0.94662,1.65026 -7.63033,3.11394 -8.81405,1.93023 z m 331.84947,-2.03164 c -0.5592,-0.90479 0.24274,-2.12255 2.46131,-3.73755 1.16755,-0.84993 2.13048,-1.90281 2.13983,-2.33972 0.0103,-0.43694 0.40528,-1.41048 0.87984,-2.16345 2.43431,-3.86247 1.16495,-6.30853 -1.81903,-3.50524 -1.688,1.58581 -2.45485,1.33794 -1.84132,-0.59515 0.70797,-2.23058 2.14483,-3.14087 4.9577,-3.14087 1.96443,0 3.18326,0.41503 4.51862,1.53868 1.60769,1.35278 2.06152,1.45748 3.7562,0.86672 1.06017,-0.36958 1.92757,-0.87869 1.92757,-1.13138 0,-0.60323 5.38579,-3.52071 8.57949,-4.6475 3.97153,-1.40126 3.65858,0.0534 -0.4385,2.03791 -2.01528,0.97621 -4.74096,2.60257 -6.0571,3.61411 -1.31612,1.01155 -2.98947,2.23393 -3.71855,2.71642 -0.72906,0.4825 -3.92788,2.98626 -7.10848,5.56394 -5.95635,4.82727 -7.6655,5.84873 -8.23758,4.92308 z M 293.8538,449.21189 c 0.94755,-3.77534 5.95593,-8.26025 9.22439,-8.26025 2.62405,0 1.94372,1.40776 -2.80076,5.79542 -4.77348,4.41446 -7.14097,5.32289 -6.42363,2.46483 z m 7.59141,1.01381 c 0.26306,-0.21896 2.4254,-1.19497 4.80519,-2.16887 5.65111,-2.3127 12.67455,-7.43222 12.66995,-9.23536 -10e-4,-0.39227 -1.78373,-0.66911 -4.48143,-0.69591 -4.30235,-0.0427 -6.31094,-0.46226 -12.05182,-2.51714 -2.95296,-1.05696 -3.48425,-2.79361 -1.54532,-5.05135 3.05431,-3.55656 9.24384,-4.74835 15.25888,-2.93808 3.47215,1.04496 5.08913,2.37415 6.24054,5.1299 0.46454,1.11181 1.24676,2.02147 1.73826,2.02147 2.18998,0 9.11126,-2.64308 12.89113,-4.92281 2.27496,-1.3721 4.4529,-2.49473 4.8398,-2.49473 1.44399,0 0.0853,1.62304 -3.42529,4.09147 -3.90801,2.74795 -8.26977,4.57025 -10.92735,4.56537 -0.91485,-0.002 -1.83529,0.27511 -2.04539,0.61508 -0.21012,0.33997 -1.04799,0.61813 -1.86194,0.61813 -1.15337,0 -1.7439,0.59678 -2.67625,2.70452 -1.32916,3.0048 -4.63359,5.60973 -10.46899,8.25295 -3.17429,1.43781 -10.14793,3.01418 -8.95997,2.02536 z m 18.86,-15.2484 c 0.25079,-0.14876 -0.62487,-1.39538 -1.94596,-2.77024 l -2.40194,-2.49971 -5.42504,0.0587 c -5.87845,0.0635 -8.2997,0.98664 -8.2997,3.16422 0,0.67209 0.0694,1.24289 0.15453,1.26844 4.38621,1.31793 16.1475,1.82902 17.91811,0.77864 z m 401.71744,8.29232 c -0.69076,-1.10491 -2.52147,-3.22609 -4.06827,-4.71374 -2.9023,-2.79137 -3.53662,-4.61159 -1.83461,-5.2647 1.75574,-0.67374 5.85114,-0.40648 6.09036,0.39745 0.1263,0.42496 0.69613,2.16345 1.26599,3.8633 2.2815,6.80526 1.39832,10.27945 -1.45347,5.71769 z M 41.806645,432.92201 c -6.322892,-1.95714 -4.18244,-5.92968 6.193927,-11.49549 6.586257,-3.53283 10.418917,-4.90173 11.016548,-3.93477 0.176164,0.28509 -0.941906,1.07675 -2.484712,1.75921 -4.998058,2.21088 -14.480942,8.08826 -15.191153,9.41532 -1.157343,2.1625 0.120121,2.6058 7.908618,2.74449 7.777162,0.13846 8.538842,0.0381 20.875644,-2.75152 9.290501,-2.10074 11.075018,-2.62308 13.831356,-4.04844 3.574613,-1.84849 3.571337,-0.62961 -0.0043,1.74472 -3.001586,1.99295 -4.87503,2.60589 -13.901963,4.54829 -8.444287,1.81705 -11.964523,2.27465 -18.468528,2.40077 -4.419618,0.0857 -8.818378,-0.0865 -9.775034,-0.38258 z m 191.104665,-8.13504 c -3.5351,-3.62936 -4.62461,-5.80205 -3.55545,-7.09031 0.3889,-0.46861 1.33756,-0.85202 2.1081,-0.85202 1.1374,0 1.82101,0.88439 3.63309,4.70013 3.51173,7.3947 2.83568,8.39751 -2.18574,3.2422 z m 110.1177,0.7404 c 0,-1.32758 -3.20625,-3.00287 -8.03566,-4.19868 -1.52987,-0.37881 -4.08086,-1.01636 -5.66885,-1.41679 -1.58801,-0.40044 -3.13622,-0.5742 -3.44048,-0.38616 -0.30427,0.18811 -8.94934,0.50367 -19.2113,0.70136 -15.26481,0.29411 -19.75203,0.18338 -24.67307,-0.6084 -13.24619,-2.13153 -19.41888,-5.8582 -17.71732,-10.69658 0.78138,-2.2218 8.35497,-7.8854 14.91866,-11.1563 2.97821,-1.48413 5.90789,-2.95068 6.51037,-3.25898 4.50577,-2.30564 16.43191,-5.28128 18.22779,-4.54796 0.98242,0.40117 0.96853,0.48274 -0.16132,0.9473 -0.67994,0.27958 -2.68019,0.52789 -4.44496,0.55176 -1.76478,0.0239 -3.35564,0.28123 -3.53524,0.57184 -0.17967,0.29062 -2.07359,1.15561 -4.20886,1.92221 -2.13526,0.7666 -4.71674,1.74145 -5.73666,2.16633 -1.01991,0.42488 -2.68886,1.11236 -3.70876,1.52775 -3.23743,1.3185 -12.2821,7.29284 -14.47776,9.56308 -1.87911,1.94294 -2.03747,2.35758 -1.41893,3.71513 1.15885,2.54339 3.27787,3.40768 13.082,5.33572 l 9.3941,1.8474 23.59885,-0.16772 c 22.3846,-0.15906 23.7738,-0.10344 26.99857,1.08238 1.87818,0.69068 3.33053,1.58977 3.24517,2.00892 -0.0876,0.43016 0.48192,0.75875 1.31509,0.75875 0.80831,0 1.82267,0.4254 2.25417,0.9453 0.65085,0.78423 0.54004,1.2056 -0.65019,2.47252 -1.72942,1.8409 -2.45547,1.93548 -2.45547,0.31988 z m 342.95134,-4.81942 c -3.72138,-3.54921 -5.74878,-6.45264 -5.01679,-7.18463 0.21313,-0.21309 1.28954,-0.38744 2.39203,-0.38744 1.85476,0 2.19306,0.34345 4.5268,4.5957 1.38726,2.52763 2.80321,4.76931 3.14652,4.98151 0.95717,0.59153 0.7415,1.54909 -0.34881,1.54909 -0.53524,0 -2.6501,-1.5994 -4.69975,-3.55423 z m -289.87537,-0.9817 c 0.7488,-0.90224 5.58136,-2.53432 6.0668,-2.0489 0.32408,0.32408 -5.1223,2.87607 -6.13803,2.87607 -0.37275,0 -0.34467,-0.32603 0.0713,-0.82717 z"
       style="fill:#ffffff;fill-opacity:1" />
  </g>
</svg>
